<svg width="3403" height="1136" xmlns="http://www.w3.org/2000/svg" xmlns:xlink="http://www.w3.org/1999/xlink" overflow="hidden"><defs><clipPath id="clip0"><path d="M-1-1 3402-1 3402 1135-1 1135Z" fill-rule="evenodd" clip-rule="evenodd"/></clipPath><clipPath id="clip1"><path d="M1221 46 2262 46 2262 1088 1221 1088Z" fill-rule="evenodd" clip-rule="evenodd"/></clipPath><clipPath id="clip2"><path d="M1221 46 2262 46 2262 1088 1221 1088Z" fill-rule="evenodd" clip-rule="evenodd"/></clipPath><clipPath id="clip3"><path d="M1221 46 2262 46 2262 1088 1221 1088Z" fill-rule="evenodd" clip-rule="evenodd"/></clipPath><clipPath id="clip4"><path d="M493 641 958 641 958 1107 493 1107Z" fill-rule="evenodd" clip-rule="evenodd"/></clipPath><clipPath id="clip5"><path d="M493 641 958 641 958 1107 493 1107Z" fill-rule="evenodd" clip-rule="evenodd"/></clipPath><clipPath id="clip6"><path d="M493 641 958 641 958 1107 493 1107Z" fill-rule="evenodd" clip-rule="evenodd"/></clipPath><clipPath id="clip7"><path d="M129 40 483 40 483 395 129 395Z" fill-rule="evenodd" clip-rule="evenodd"/></clipPath><clipPath id="clip8"><path d="M129 40 483 40 483 395 129 395Z" fill-rule="evenodd" clip-rule="evenodd"/></clipPath><clipPath id="clip9"><path d="M129 40 483 40 483 395 129 395Z" fill-rule="evenodd" clip-rule="evenodd"/></clipPath><clipPath id="clip10"><path d="M1742 54 2134 54 2134 446 1742 446Z" fill-rule="evenodd" clip-rule="evenodd"/></clipPath><clipPath id="clip11"><path d="M1742 54 2134 54 2134 446 1742 446Z" fill-rule="evenodd" clip-rule="evenodd"/></clipPath><clipPath id="clip12"><path d="M1742 54 2134 54 2134 446 1742 446Z" fill-rule="evenodd" clip-rule="evenodd"/></clipPath><clipPath id="clip13"><path d="M2116 218 2503 218 2503 604 2116 604Z" fill-rule="evenodd" clip-rule="evenodd"/></clipPath><clipPath id="clip14"><path d="M2116 218 2503 218 2503 604 2116 604Z" fill-rule="evenodd" clip-rule="evenodd"/></clipPath><clipPath id="clip15"><path d="M2116 218 2503 218 2503 604 2116 604Z" fill-rule="evenodd" clip-rule="evenodd"/></clipPath><clipPath id="clip16"><path d="M1061 21 1533 21 1533 494 1061 494Z" fill-rule="evenodd" clip-rule="evenodd"/></clipPath><clipPath id="clip17"><path d="M1061 21 1533 21 1533 495 1061 495Z" fill-rule="evenodd" clip-rule="evenodd"/></clipPath><clipPath id="clip18"><path d="M1061 21 1533 21 1533 495 1061 495Z" fill-rule="evenodd" clip-rule="evenodd"/></clipPath><clipPath id="clip19"><path d="M975 691 1297 691 1297 1013 975 1013Z" fill-rule="evenodd" clip-rule="evenodd"/></clipPath><clipPath id="clip20"><path d="M975 691 1297 691 1297 1013 975 1013Z" fill-rule="evenodd" clip-rule="evenodd"/></clipPath><clipPath id="clip21"><path d="M975 691 1297 691 1297 1013 975 1013Z" fill-rule="evenodd" clip-rule="evenodd"/></clipPath><clipPath id="clip22"><path d="M1265 456 1719 456 1719 910 1265 910Z" fill-rule="evenodd" clip-rule="evenodd"/></clipPath><clipPath id="clip23"><path d="M1265 456 1719 456 1719 910 1265 910Z" fill-rule="evenodd" clip-rule="evenodd"/></clipPath><clipPath id="clip24"><path d="M1265 456 1719 456 1719 910 1265 910Z" fill-rule="evenodd" clip-rule="evenodd"/></clipPath><clipPath id="clip25"><path d="M2266 700 2621 700 2621 1055 2266 1055Z" fill-rule="evenodd" clip-rule="evenodd"/></clipPath><clipPath id="clip26"><path d="M2266 700 2621 700 2621 1055 2266 1055Z" fill-rule="evenodd" clip-rule="evenodd"/></clipPath><clipPath id="clip27"><path d="M2266 700 2621 700 2621 1055 2266 1055Z" fill-rule="evenodd" clip-rule="evenodd"/></clipPath><clipPath id="clip28"><path d="M695 197 1035 197 1035 538 695 538Z" fill-rule="evenodd" clip-rule="evenodd"/></clipPath><clipPath id="clip29"><path d="M695 197 1035 197 1035 538 695 538Z" fill-rule="evenodd" clip-rule="evenodd"/></clipPath><clipPath id="clip30"><path d="M695 197 1035 197 1035 538 695 538Z" fill-rule="evenodd" clip-rule="evenodd"/></clipPath><clipPath id="clip31"><path d="M2564 8 2920 8 2920 364 2564 364Z" fill-rule="evenodd" clip-rule="evenodd"/></clipPath><clipPath id="clip32"><path d="M2564 8 2920 8 2920 364 2564 364Z" fill-rule="evenodd" clip-rule="evenodd"/></clipPath><clipPath id="clip33"><path d="M2564 8 2920 8 2920 364 2564 364Z" fill-rule="evenodd" clip-rule="evenodd"/></clipPath><clipPath id="clip34"><path d="M1899 571 2116 571 2116 789 1899 789Z" fill-rule="evenodd" clip-rule="evenodd"/></clipPath><clipPath id="clip35"><path d="M1899 571 2116 571 2116 789 1899 789Z" fill-rule="evenodd" clip-rule="evenodd"/></clipPath><clipPath id="clip36"><path d="M1899 571 2116 571 2116 789 1899 789Z" fill-rule="evenodd" clip-rule="evenodd"/></clipPath><clipPath id="clip37"><path d="M2902 705 3257 705 3257 1061 2902 1061Z" fill-rule="evenodd" clip-rule="evenodd"/></clipPath><clipPath id="clip38"><path d="M2902 705 3257 705 3257 1061 2902 1061Z" fill-rule="evenodd" clip-rule="evenodd"/></clipPath><clipPath id="clip39"><path d="M2902 705 3257 705 3257 1061 2902 1061Z" fill-rule="evenodd" clip-rule="evenodd"/></clipPath><clipPath id="clip40"><path d="M291 410 607 410 607 725 291 725Z" fill-rule="evenodd" clip-rule="evenodd"/></clipPath><clipPath id="clip41"><path d="M291 410 607 410 607 725 291 725Z" fill-rule="evenodd" clip-rule="evenodd"/></clipPath><clipPath id="clip42"><path d="M291 410 607 410 607 725 291 725Z" fill-rule="evenodd" clip-rule="evenodd"/></clipPath><clipPath id="clip43"><path d="M2617 389 2973 389 2973 745 2617 745Z" fill-rule="evenodd" clip-rule="evenodd"/></clipPath><clipPath id="clip44"><path d="M2617 389 2973 389 2973 745 2617 745Z" fill-rule="evenodd" clip-rule="evenodd"/></clipPath><clipPath id="clip45"><path d="M2617 389 2973 389 2973 745 2617 745Z" fill-rule="evenodd" clip-rule="evenodd"/></clipPath><clipPath id="clip46"><path d="M82 760 382 760 382 1061 82 1061Z" fill-rule="evenodd" clip-rule="evenodd"/></clipPath><clipPath id="clip47"><path d="M82 760 382 760 382 1061 82 1061Z" fill-rule="evenodd" clip-rule="evenodd"/></clipPath><clipPath id="clip48"><path d="M82 760 382 760 382 1061 82 1061Z" fill-rule="evenodd" clip-rule="evenodd"/></clipPath></defs><g clip-path="url(#clip0)" transform="translate(1 1)"><rect x="0" y="0" width="3402" height="1134" fill="#141414"/><g clip-path="url(#clip1)"><g clip-path="url(#clip2)"><g clip-path="url(#clip3)"><path d="M824.125 650.625 216.875 650.625 216.875 281.938 824.125 281.938 824.125 650.625ZM889.188 260.25C889.188 236.394 869.669 216.875 845.813 216.875L195.188 216.875C171.331 216.875 151.813 236.394 151.813 260.25L151.813 715.688 889.188 715.688 889.188 260.25Z" fill="#828282" transform="matrix(1 0 -0 1.00096 1221 46)"/><path d="M585.563 759.063 585.563 769.906C585.563 776.412 581.225 780.75 574.719 780.75L466.281 780.75C459.775 780.75 455.438 776.412 455.438 769.906L455.438 759.063 21.6875 759.063 21.6875 780.75C21.6875 804.606 41.2062 824.125 65.0625 824.125L975.938 824.125C999.794 824.125 1019.31 804.606 1019.31 780.75L1019.31 759.063 585.563 759.063Z" fill="#828282" transform="matrix(1 0 -0 1.00096 1221 46)"/></g></g></g><g clip-path="url(#clip4)"><g clip-path="url(#clip5)"><g clip-path="url(#clip6)"><path d="M368.125 87.1875C368.125 108.589 307.404 125.938 232.5 125.938 157.596 125.938 96.875 108.589 96.875 87.1875 96.875 65.7865 157.596 48.4375 232.5 48.4375 307.404 48.4375 368.125 65.7865 368.125 87.1875Z" fill="#EA4335" transform="matrix(1 0 -0 1.00215 493 641)"/><path d="M329.375 184.063C323.563 184.063 319.688 180.188 319.688 174.375 319.688 168.563 323.563 164.688 329.375 164.688 335.188 164.688 339.063 168.563 339.063 174.375 339.063 180.188 335.188 184.063 329.375 184.063ZM232.5 145.313C157.906 145.313 96.875 127.875 96.875 106.563L96.875 184.063C96.875 205.375 157.906 222.813 232.5 222.813 307.094 222.813 368.125 205.375 368.125 184.063L368.125 106.563C368.125 127.875 307.094 145.313 232.5 145.313Z" fill="#EA4335" transform="matrix(1 0 -0 1.00215 493 641)"/><path d="M329.375 280.938C323.563 280.938 319.688 277.063 319.688 271.25 319.688 265.438 323.563 261.563 329.375 261.563 335.188 261.563 339.063 265.438 339.063 271.25 339.063 277.063 335.188 280.938 329.375 280.938ZM232.5 242.188C157.906 242.188 96.875 224.75 96.875 203.438L96.875 280.938C96.875 302.25 157.906 319.688 232.5 319.688 307.094 319.688 368.125 302.25 368.125 280.938L368.125 203.438C368.125 224.75 307.094 242.188 232.5 242.188Z" fill="#EA4335" transform="matrix(1 0 -0 1.00215 493 641)"/><path d="M329.375 377.813C323.563 377.813 319.688 373.938 319.688 368.125 319.688 362.313 323.563 358.438 329.375 358.438 335.188 358.438 339.063 362.313 339.063 368.125 339.063 373.938 335.188 377.813 329.375 377.813ZM232.5 339.063C157.906 339.063 96.875 321.625 96.875 300.313L96.875 377.813C96.875 399.125 157.906 416.563 232.5 416.563 307.094 416.563 368.125 399.125 368.125 377.813L368.125 300.313C368.125 321.625 307.094 339.063 232.5 339.063Z" fill="#EA4335" transform="matrix(1 0 -0 1.00215 493 641)"/></g></g></g><g clip-path="url(#clip7)"><g clip-path="url(#clip8)"><g clip-path="url(#clip9)"><path d="M169.625 36.875C95.875 40.5625 36.875 102.512 36.875 177 36.875 254.438 99.5625 317.125 177 317.125 212.031 317.125 244.85 304.587 270.663 280.987L169.625 179.95 169.625 36.875Z" fill="#FAFAFA" transform="matrix(1 0 -0 1.00282 129 40)"/><path d="M184.375 36.875 184.375 169.625 316.756 169.625C313.069 97.7188 255.913 40.5625 184.375 36.875Z" fill="#FAFAFA" transform="matrix(1 0 -0 1.00282 129 40)"/><path d="M194.7 184.375 280.987 270.663C302.744 246.694 315.281 216.456 316.756 184.375L194.7 184.375Z" fill="#FAFAFA" transform="matrix(1 0 -0 1.00282 129 40)"/></g></g></g><g clip-path="url(#clip10)"><g clip-path="url(#clip11)"><g clip-path="url(#clip12)"><path d="M1823.67 111.167 1799.17 111.167 1799.17 388.833 2076.83 388.833 2076.83 364.333 1823.67 364.333Z" fill="#FBBC05"/><path d="M1848.17 196.917 1893.08 196.917 1893.08 339.833 1848.17 339.833Z" fill="#FBBC05"/><path d="M1909.42 111.167 1954.33 111.167 1954.33 339.833 1909.42 339.833Z" fill="#FBBC05"/><path d="M1970.67 196.917 2015.58 196.917 2015.58 339.833 1970.67 339.833Z" fill="#FBBC05"/><path d="M2031.92 266.333 2076.83 266.333 2076.83 339.833 2031.92 339.833Z" fill="#FBBC05"/></g></g></g><g clip-path="url(#clip13)"><g clip-path="url(#clip14)"><g clip-path="url(#clip15)"><path d="M321.667 80.4167C321.68 64.8721 309.089 52.2604 293.544 52.2475 278 52.2346 265.388 64.8255 265.375 80.37 265.367 89.8962 270.178 98.7802 278.161 103.979L257.333 164.854 257.333 164.854C251.585 164.848 245.972 166.602 241.25 169.88L199.273 138.397C204.656 123.814 197.198 107.629 182.615 102.246 168.032 96.8631 151.847 104.321 146.464 118.903 141.972 131.073 146.378 144.736 157.134 151.988L130.315 237.229 128.667 237.229C113.122 237.192 100.491 249.763 100.454 265.308 100.417 280.852 112.988 293.484 128.533 293.521 144.077 293.558 156.708 280.986 156.745 265.442 156.767 256.536 152.571 248.145 145.434 242.818L172.494 156.813 172.896 156.813C178.921 156.801 184.785 154.856 189.623 151.264L231.238 182.425C229.899 185.791 229.204 189.378 229.188 193 229.181 208.545 241.778 221.151 257.322 221.157 272.867 221.163 285.473 208.566 285.479 193.022 285.483 183.534 280.706 174.683 272.773 169.478L293.521 108.563C309.065 108.563 321.667 95.9612 321.667 80.4167Z" fill="#34A853" transform="matrix(1.00259 0 -0 1 2116 218)"/><path d="M80.4167 52.2708 56.2917 52.2708 56.2917 333.729 333.729 333.729 333.729 309.604 80.4167 309.604 80.4167 52.2708Z" fill="#34A853" transform="matrix(1.00259 0 -0 1 2116 218)"/></g></g></g><g clip-path="url(#clip16)"><g clip-path="url(#clip17)"><g clip-path="url(#clip18)"><path d="M170.067 316.682 113.919 260.583 170.067 204.484 183.932 218.349 141.747 260.583 183.932 302.818 170.067 316.682Z" fill="#34A853" transform="matrix(1 0 -0 1.00212 1061 21)"/><path d="M301.932 316.682 288.068 302.818 330.252 260.583 288.068 218.349 301.932 204.484 358.081 260.583 301.932 316.682Z" fill="#34A853" transform="matrix(1 0 -0 1.00212 1061 21)"/><path d="M35.44 51.54 60.43 51.54 60.43 55.54 35.44 55.54Z" fill="#34A853" transform="matrix(1.88232 -4.5517 4.54208 1.88631 963.257 402.011)"/><path d="M39.3333 83.5833 39.3333 388.417 432.667 388.417 432.667 83.5833ZM378.583 113.083C384.014 113.083 388.417 117.486 388.417 122.917 388.417 128.348 384.014 132.75 378.583 132.75 373.152 132.75 368.75 128.348 368.75 122.917 368.75 117.486 373.152 113.083 378.583 113.083ZM344.167 113.083C349.598 113.083 354 117.486 354 122.917 354 128.348 349.598 132.75 344.167 132.75 338.736 132.75 334.333 128.348 334.333 122.917 334.333 117.486 338.736 113.083 344.167 113.083ZM309.75 113.083C315.181 113.083 319.583 117.486 319.583 122.917 319.583 128.348 315.181 132.75 309.75 132.75 304.319 132.75 299.917 128.348 299.917 122.917 299.917 117.486 304.319 113.083 309.75 113.083ZM403.167 358.917 68.8333 358.917 68.8333 162.25 403.167 162.25Z" fill="#34A853" transform="matrix(1 0 -0 1.00212 1061 21)"/></g></g></g><g clip-path="url(#clip19)"><g clip-path="url(#clip20)"><g clip-path="url(#clip21)"><path d="M1169.54 942.563 1263.46 942.563 1263.46 989.521 1169.54 989.521Z" fill="#FAFAFA"/><path d="M1209.79 868.771 1209.79 917.071 1203.08 910.362C1200.79 908.066 1197.06 908.066 1194.77 910.362 1192.47 912.659 1192.47 916.384 1194.77 918.681L1212.37 936.29C1214.68 938.575 1218.39 938.575 1220.69 936.29L1238.3 918.681C1240.61 916.365 1240.6 912.619 1238.29 910.312 1235.97 908.006 1232.22 908.013 1229.92 910.329L1223.21 917.037 1223.21 855.354 1166.19 855.354 1136 826.441 1105.81 855.354 1048.79 855.354 1048.79 917.071 1042.08 910.362C1039.79 908.066 1036.06 908.066 1033.77 910.362 1031.47 912.659 1031.47 916.384 1033.77 918.681L1051.37 936.29C1053.68 938.575 1057.39 938.575 1059.69 936.29L1077.3 918.681C1079.61 916.365 1079.6 912.619 1077.29 910.312 1074.97 908.006 1071.22 908.013 1068.92 910.329L1062.21 917.037 1062.21 868.771 1105.81 868.771 1136 898.958 1166.19 868.771 1209.79 868.771Z" fill="#FAFAFA"/><path d="M1008.54 942.563 1102.46 942.563 1102.46 989.521 1008.54 989.521Z" fill="#FAFAFA"/><path d="M1129.66 800.044 1122.58 792.933C1120.29 790.636 1116.56 790.636 1114.27 792.933 1111.97 795.23 1111.97 798.955 1114.27 801.251L1131.87 818.861C1134.18 821.146 1137.89 821.146 1140.19 818.861L1157.8 801.251C1160.1 798.936 1160.08 795.197 1157.77 792.9 1155.45 790.603 1151.71 790.617 1149.42 792.933L1143.04 799.34 1143.04 761.438 1182.96 761.438 1182.96 714.479 1089.04 714.479 1089.04 761.438 1129.66 761.438Z" fill="#FAFAFA"/></g></g></g><g clip-path="url(#clip22)"><g clip-path="url(#clip23)"><g clip-path="url(#clip24)"><path d="M1302.83 536.396 1302.83 829.604 1681.17 829.604 1681.17 536.396ZM1629.15 564.771C1634.37 564.771 1638.6 569.005 1638.6 574.229 1638.6 579.453 1634.37 583.688 1629.15 583.688 1623.92 583.688 1619.69 579.453 1619.69 574.229 1619.69 569.005 1623.92 564.771 1629.15 564.771ZM1596.04 564.771C1601.27 564.771 1605.5 569.005 1605.5 574.229 1605.5 579.453 1601.27 583.688 1596.04 583.688 1590.82 583.688 1586.58 579.453 1586.58 574.229 1586.58 569.005 1590.82 564.771 1596.04 564.771ZM1562.94 564.771C1568.16 564.771 1572.4 569.005 1572.4 574.229 1572.4 579.453 1568.16 583.688 1562.94 583.688 1557.71 583.688 1553.48 579.453 1553.48 574.229 1553.48 569.005 1557.71 564.771 1562.94 564.771ZM1652.79 801.229 1331.21 801.229 1331.21 612.063 1652.79 612.063Z" fill="#4285F4"/></g></g></g><g clip-path="url(#clip25)"><g clip-path="url(#clip26)"><g clip-path="url(#clip27)"><path d="M2432.41 947.76 2454.59 947.76 2454.59 977.344 2432.41 977.344Z" fill="#FAFAFA"/><path d="M2432.41 992.135 2454.59 992.135 2454.59 1014.32 2432.41 1014.32Z" fill="#FAFAFA"/><path d="M2469.39 992.135 2576.63 992.135 2576.63 1014.32 2469.39 1014.32Z" fill="#FAFAFA"/><path d="M2310.38 992.135 2417.61 992.135 2417.61 1014.32 2310.38 1014.32Z" fill="#FAFAFA"/><path d="M2548.59 888.594 2338.41 888.594C2331.09 888.594 2325.17 894.521 2325.17 901.832L2325.17 934.522C2325.17 941.833 2331.09 947.76 2338.41 947.76L2548.59 947.76C2555.91 947.76 2561.83 941.833 2561.83 934.522L2561.83 901.832C2561.83 894.521 2555.91 888.594 2548.59 888.594ZM2362.15 925.573C2358.06 925.573 2354.75 922.262 2354.75 918.177 2354.75 914.092 2358.06 910.781 2362.15 910.781 2366.23 910.781 2369.54 914.092 2369.54 918.177 2369.54 922.262 2366.23 925.573 2362.15 925.573ZM2399.13 925.573C2395.04 925.573 2391.73 922.262 2391.73 918.177 2391.73 914.092 2395.04 910.781 2399.13 910.781 2403.21 910.781 2406.52 914.092 2406.52 918.177 2406.52 922.262 2403.21 925.573 2399.13 925.573ZM2436.1 925.573C2432.02 925.573 2428.71 922.262 2428.71 918.177 2428.71 914.092 2432.02 910.781 2436.1 910.781 2440.19 910.781 2443.5 914.092 2443.5 918.177 2443.5 922.262 2440.19 925.573 2436.1 925.573Z" fill="#FAFAFA"/><path d="M2548.59 814.635 2338.41 814.635C2331.09 814.635 2325.17 820.562 2325.17 827.874L2325.17 860.564C2325.17 867.875 2331.09 873.802 2338.41 873.802L2548.59 873.802C2555.91 873.802 2561.83 867.875 2561.83 860.564L2561.83 827.874C2561.83 820.562 2555.91 814.635 2548.59 814.635ZM2362.15 851.615C2358.06 851.615 2354.75 848.303 2354.75 844.219 2354.75 840.134 2358.06 836.823 2362.15 836.823 2366.23 836.823 2369.54 840.134 2369.54 844.219 2369.54 848.303 2366.23 851.615 2362.15 851.615ZM2399.13 851.615C2395.04 851.615 2391.73 848.303 2391.73 844.219 2391.73 840.134 2395.04 836.823 2399.13 836.823 2403.21 836.823 2406.52 840.134 2406.52 844.219 2406.52 848.303 2403.21 851.615 2399.13 851.615ZM2436.1 851.615C2432.02 851.615 2428.71 848.303 2428.71 844.219 2428.71 840.134 2432.02 836.823 2436.1 836.823 2440.19 836.823 2443.5 840.134 2443.5 844.219 2443.5 848.303 2440.19 851.615 2436.1 851.615Z" fill="#FAFAFA"/><path d="M2548.59 740.677 2338.41 740.677C2331.09 740.677 2325.17 746.604 2325.17 753.916L2325.17 786.605C2325.17 793.917 2331.09 799.844 2338.41 799.844L2548.59 799.844C2555.91 799.844 2561.83 793.917 2561.83 786.605L2561.83 753.916C2561.83 746.604 2555.91 740.677 2548.59 740.677ZM2362.15 777.656C2358.06 777.656 2354.75 774.345 2354.75 770.26 2354.75 766.176 2358.06 762.865 2362.15 762.865 2366.23 762.865 2369.54 766.176 2369.54 770.26 2369.54 774.345 2366.23 777.656 2362.15 777.656ZM2399.13 777.656C2395.04 777.656 2391.73 774.345 2391.73 770.26 2391.73 766.176 2395.04 762.865 2399.13 762.865 2403.21 762.865 2406.52 766.176 2406.52 770.26 2406.52 774.345 2403.21 777.656 2399.13 777.656ZM2436.1 777.656C2432.02 777.656 2428.71 774.345 2428.71 770.26 2428.71 766.176 2432.02 762.865 2436.1 762.865 2440.19 762.865 2443.5 766.176 2443.5 770.26 2443.5 774.345 2440.19 777.656 2436.1 777.656Z" fill="#FAFAFA"/></g></g></g><g clip-path="url(#clip28)"><g clip-path="url(#clip29)"><g clip-path="url(#clip30)"><path d="M49.5833 141.667 99.1667 141.667 99.1667 191.25 49.5833 191.25Z" fill="#FBBC05" transform="matrix(1 0 -0 1.00294 695 197)"/><path d="M240.833 141.667 290.417 141.667 290.417 191.25 240.833 191.25Z" fill="#FBBC05" transform="matrix(1 0 -0 1.00294 695 197)"/><path d="M49.5833 46.0417 99.1667 46.0417 99.1667 95.625 49.5833 95.625Z" fill="#FBBC05" transform="matrix(1 0 -0 1.00294 695 197)"/><path d="M49.5833 237.292 99.1667 237.292 99.1667 286.875 49.5833 286.875Z" fill="#FBBC05" transform="matrix(1 0 -0 1.00294 695 197)"/><path d="M177.083 63.75 113.333 63.75 113.333 77.9167 162.917 77.9167 162.917 159.375 113.333 159.375 113.333 173.542 162.917 173.542 162.917 255 113.333 255 113.333 269.167 177.083 269.167 177.083 173.542 226.667 173.542 226.667 159.375 177.083 159.375 177.083 63.75Z" fill="#FBBC05" transform="matrix(1 0 -0 1.00294 695 197)"/></g></g></g><g clip-path="url(#clip31)"><g clip-path="url(#clip32)"><g clip-path="url(#clip33)"><path d="M2799.59 190.672 2775.56 214.702 2751.49 190.672 2764.92 190.672C2760.38 181.827 2751.27 176.26 2741.33 176.247 2734.92 176.254 2728.73 178.616 2723.94 182.885L2699.5 182.885C2710.39 159.759 2737.96 149.838 2761.09 160.725 2773.43 166.535 2782.58 177.493 2786.09 190.672Z" fill="#4285F4"/><path d="M2683.22 214.702 2707.29 190.672 2731.32 214.702 2717.78 214.702C2722.31 223.542 2731.4 229.109 2741.33 229.128 2747.76 229.126 2753.96 226.764 2758.76 222.49L2783.31 222.49C2772.39 245.644 2744.76 255.56 2721.61 244.638 2709.28 238.821 2700.14 227.872 2696.61 214.702Z" fill="#4285F4"/><path d="M2855.96 289.833C2887.98 289.075 2913.32 262.501 2912.57 230.479 2911.9 202.227 2890.96 178.569 2863 174.467 2860.05 156.332 2850.09 140.085 2835.26 129.225 2819.92 118.354 2800.77 114.326 2782.35 118.1 2764.23 90.1233 2730.43 76.6145 2698.02 84.3917 2666.43 92.5274 2642.82 118.854 2638.17 151.142 2617.12 151.707 2597.5 161.888 2584.92 178.769 2570.01 199.476 2567.29 226.567 2577.79 249.82 2588.5 272.741 2610.91 287.947 2636.16 289.425ZM2637.17 266.397C2620.39 265.34 2605.51 255.238 2598.34 240.03 2591.38 224.53 2593.17 206.502 2603.05 192.675 2613.14 179.094 2629.94 172.237 2646.66 174.875L2659.82 177.063 2659.82 162.526C2659.95 136.263 2677.8 113.399 2703.25 106.901 2728.78 100.745 2755.18 113.052 2766.88 136.568L2771.37 145.505 2780.68 142.205C2794.6 137.284 2810.05 139.442 2822.1 147.99 2834.08 156.763 2841.17 170.709 2841.2 185.555L2841.2 197.125 2856.33 197.125C2875.55 197.847 2890.54 214.011 2889.82 233.228 2889.13 251.576 2874.31 266.237 2855.96 266.73Z" fill="#4285F4"/></g></g></g><g clip-path="url(#clip34)"><g clip-path="url(#clip35)"><g clip-path="url(#clip36)"><path d="M171.792 151.674 126.131 106.036 166.367 91.5469C168.433 90.8369 169.532 88.5864 168.822 86.5204 168.426 85.3671 167.52 84.4612 166.367 84.0649L50.4299 45.4118C50.0142 45.2748 49.5791 45.2061 49.1415 45.2083L49.1415 45.2083C46.9697 45.2549 45.247 47.0531 45.2936 49.2249 45.3021 49.6274 45.3724 50.0262 45.5022 50.4073L84.0649 166.457C84.7928 168.517 87.0527 169.597 89.1126 168.869 90.2397 168.47 91.126 167.584 91.5243 166.457L106.036 126.176 151.651 171.792Z" fill="#FBBC05" transform="matrix(1 0 -0 1.00461 1899 571)"/></g></g></g><g clip-path="url(#clip37)"><g clip-path="url(#clip38)"><g clip-path="url(#clip39)"><path d="M110.938 72.1094 55.4688 105.76 177.5 179.719 232.969 146.068Z" fill="#FBBC05" transform="matrix(1 0 -0 1.00282 2902 705)"/><path d="M299.531 105.76 177.5 31.8021 124.99 63.6042 247.021 137.563Z" fill="#FBBC05" transform="matrix(1 0 -0 1.00282 2902 705)"/><path d="M55.4688 135.344 55.4688 253.677 170.104 323.198 170.104 192.661 55.4688 123.141Z" fill="#FBBC05" transform="matrix(1 0 -0 1.00282 2902 705)"/><path d="M225.573 213 199.688 227.792 199.688 201.906 225.573 187.115 225.573 213ZM184.896 192.661 184.896 323.198 299.531 253.677 299.531 123.141 184.896 192.661Z" fill="#FBBC05" transform="matrix(1 0 -0 1.00282 2902 705)"/></g></g></g><g clip-path="url(#clip40)"><g clip-path="url(#clip41)"><g clip-path="url(#clip42)"><path d="M175.547 260.859C196.875 234.609 220.5 201.469 222.797 164.063L262.172 164.063C259.219 212.953 222.797 252.656 175.547 260.859ZM52.8281 164.063 92.2031 164.063C94.8281 201.469 118.125 234.609 139.453 260.859 92.2031 252.656 55.7813 212.953 52.8281 164.063ZM139.453 54.1406C118.125 80.3906 94.5 113.531 92.2031 150.938L52.8281 150.938C55.7813 102.047 92.2031 62.3438 139.453 54.1406ZM164.063 164.063 209.672 164.063C207.047 197.859 185.063 228.375 164.063 254.297L164.063 164.063ZM150.938 164.063 150.938 254.297C129.938 228.375 107.953 197.859 105.328 164.063L150.938 164.063ZM164.063 60.7031C185.063 86.625 207.047 116.812 209.672 150.938L164.063 150.938 164.063 60.7031ZM150.938 150.938 105.328 150.938C107.953 117.141 129.938 86.625 150.938 60.7031L150.938 150.938ZM262.172 150.938 222.797 150.938C220.5 113.531 196.875 80.3906 175.547 54.1406 222.797 62.3438 259.219 102.047 262.172 150.938ZM157.5 32.8125C88.5938 32.8125 32.8125 88.5938 32.8125 157.5 32.8125 226.406 88.5938 282.188 157.5 282.188 226.406 282.188 282.188 226.406 282.188 157.5 282.188 88.5938 226.406 32.8125 157.5 32.8125Z" fill="#4285F4" transform="matrix(1.00317 0 -0 1 291 410)"/></g></g></g><g clip-path="url(#clip43)"><g clip-path="url(#clip44)"><g clip-path="url(#clip45)"><path d="M2917.38 659.931C2917.38 680.411 2900.77 697.014 2880.29 697.014 2859.81 697.014 2843.21 680.411 2843.21 659.931 2843.21 639.45 2859.81 622.847 2880.29 622.847 2900.77 622.847 2917.38 639.45 2917.38 659.931Z" fill="#EA4335"/><path d="M2743.08 478.223C2743.08 498.703 2726.48 515.306 2706 515.306 2685.52 515.306 2668.92 498.703 2668.92 478.222 2668.92 457.742 2685.52 441.139 2706 441.139 2726.48 441.139 2743.08 457.742 2743.08 478.223Z" fill="#EA4335"/><path d="M2880.29 518.94 2839.54 478.185 2880.29 438.766 2921.05 478.185 2880.29 518.94Z" fill="#EA4335"/><path d="M2668.92 622.625 2743.08 622.625 2743.08 696.792 2668.92 696.792Z" fill="#EA4335"/><path d="M2827.89 652.514 2772.75 652.514 2780.17 645.097C2782.71 642.558 2782.71 638.44 2780.17 635.901 2777.63 633.361 2773.51 633.361 2770.97 635.901L2751.5 655.37C2750.3 656.602 2749.62 658.249 2749.61 659.968 2749.62 661.689 2750.3 663.338 2751.5 664.566L2770.97 684.035C2773.52 686.574 2777.65 686.566 2780.19 684.016 2782.72 681.467 2782.72 677.341 2780.17 674.801L2772.75 667.385 2827.89 667.385Z" fill="#EA4335"/><path d="M2830.41 473.439 2810.95 453.97C2808.41 451.441 2804.3 451.449 2801.77 453.989 2799.24 456.528 2799.25 460.637 2801.79 463.167L2809.2 470.583 2757.92 470.583 2757.92 485.417 2809.24 485.417 2801.82 492.833C2799.26 495.352 2799.23 499.47 2801.75 502.03 2804.27 504.59 2808.39 504.623 2810.95 502.104L2830.41 482.635C2832.94 480.09 2832.94 475.984 2830.41 473.439Z" fill="#EA4335"/><path d="M2904.47 585.022C2901.93 582.496 2897.82 582.496 2895.27 585.022L2887.86 592.439 2887.86 533.625 2872.88 533.625 2872.88 592.513 2865.46 585.097C2862.92 582.567 2858.81 582.576 2856.28 585.115 2853.75 587.655 2853.76 591.764 2856.3 594.293L2875.73 613.762C2878.28 616.289 2882.38 616.289 2884.93 613.762L2904.4 594.293C2906.98 591.776 2907.03 587.644 2904.51 585.064 2904.5 585.05 2904.48 585.036 2904.47 585.022Z" fill="#EA4335"/></g></g></g><g clip-path="url(#clip46)"><g clip-path="url(#clip47)"><g clip-path="url(#clip48)"><path d="M31.25 106.25 53.125 106.25 53.125 118.75 31.25 118.75Z" fill="#34A853" transform="matrix(1 0 -0 1.00333 82 760)"/><path d="M31.25 81.25 53.125 81.25 53.125 93.75 31.25 93.75Z" fill="#34A853" transform="matrix(1 0 -0 1.00333 82 760)"/><path d="M31.25 131.25 53.125 131.25 53.125 143.75 31.25 143.75Z" fill="#34A853" transform="matrix(1 0 -0 1.00333 82 760)"/><path d="M31.25 206.25 53.125 206.25 53.125 218.75 31.25 218.75Z" fill="#34A853" transform="matrix(1 0 -0 1.00333 82 760)"/><path d="M31.25 181.25 53.125 181.25 53.125 193.75 31.25 193.75Z" fill="#34A853" transform="matrix(1 0 -0 1.00333 82 760)"/><path d="M31.25 156.25 53.125 156.25 53.125 168.75 31.25 168.75Z" fill="#34A853" transform="matrix(1 0 -0 1.00333 82 760)"/><path d="M246.875 181.25 268.75 181.25 268.75 193.75 246.875 193.75Z" fill="#34A853" transform="matrix(1 0 -0 1.00333 82 760)"/><path d="M246.875 206.25 268.75 206.25 268.75 218.75 246.875 218.75Z" fill="#34A853" transform="matrix(1 0 -0 1.00333 82 760)"/><path d="M246.875 156.25 268.75 156.25 268.75 168.75 246.875 168.75Z" fill="#34A853" transform="matrix(1 0 -0 1.00333 82 760)"/><path d="M246.875 81.25 268.75 81.25 268.75 93.75 246.875 93.75Z" fill="#34A853" transform="matrix(1 0 -0 1.00333 82 760)"/><path d="M246.875 131.25 268.75 131.25 268.75 143.75 246.875 143.75Z" fill="#34A853" transform="matrix(1 0 -0 1.00333 82 760)"/><path d="M246.875 106.25 268.75 106.25 268.75 118.75 246.875 118.75Z" fill="#34A853" transform="matrix(1 0 -0 1.00333 82 760)"/><path d="M156.25 31.25 168.75 31.25 168.75 53.125 156.25 53.125Z" fill="#34A853" transform="matrix(1 0 -0 1.00333 82 760)"/><path d="M206.25 31.25 218.75 31.25 218.75 53.125 206.25 53.125Z" fill="#34A853" transform="matrix(1 0 -0 1.00333 82 760)"/><path d="M181.25 31.25 193.75 31.25 193.75 53.125 181.25 53.125Z" fill="#34A853" transform="matrix(1 0 -0 1.00333 82 760)"/><path d="M131.25 31.25 143.75 31.25 143.75 53.125 131.25 53.125Z" fill="#34A853" transform="matrix(1 0 -0 1.00333 82 760)"/><path d="M81.25 31.25 93.75 31.25 93.75 53.125 81.25 53.125Z" fill="#34A853" transform="matrix(1 0 -0 1.00333 82 760)"/><path d="M106.25 31.25 118.75 31.25 118.75 53.125 106.25 53.125Z" fill="#34A853" transform="matrix(1 0 -0 1.00333 82 760)"/><path d="M106.25 246.875 118.75 246.875 118.75 268.75 106.25 268.75Z" fill="#34A853" transform="matrix(1 0 -0 1.00333 82 760)"/><path d="M81.25 246.875 93.75 246.875 93.75 268.75 81.25 268.75Z" fill="#34A853" transform="matrix(1 0 -0 1.00333 82 760)"/><path d="M131.25 246.875 143.75 246.875 143.75 268.75 131.25 268.75Z" fill="#34A853" transform="matrix(1 0 -0 1.00333 82 760)"/><path d="M156.25 246.875 168.75 246.875 168.75 268.75 156.25 268.75Z" fill="#34A853" transform="matrix(1 0 -0 1.00333 82 760)"/><path d="M181.25 246.875 193.75 246.875 193.75 268.75 181.25 268.75Z" fill="#34A853" transform="matrix(1 0 -0 1.00333 82 760)"/><path d="M206.25 246.875 218.75 246.875 218.75 268.75 206.25 268.75Z" fill="#34A853" transform="matrix(1 0 -0 1.00333 82 760)"/><path d="M109.375 109.375 190.625 109.375 190.625 190.625 109.375 190.625Z" fill="#34A853" transform="matrix(1 0 -0 1.00333 82 760)"/><path d="M221.875 65.625 78.125 65.625C71.2216 65.625 65.625 71.2216 65.625 78.125L65.625 221.875C65.625 228.778 71.2216 234.375 78.125 234.375L221.875 234.375C228.778 234.375 234.375 228.778 234.375 221.875L234.375 78.125C234.375 71.2216 228.778 65.625 221.875 65.625ZM203.125 203.125 96.875 203.125 96.875 96.875 203.125 96.875Z" fill="#34A853" transform="matrix(1 0 -0 1.00333 82 760)"/></g></g></g></g></svg>